<svg xmlns="http://www.w3.org/2000/svg" xmlns:svg="http://www.w3.org/2000/svg" id="svg6044" width="642.051" height="5.407" version="1.1" viewBox="0 0 642.051 5.407"><metadata id="metadata6049"/><g id="layer1" transform="translate(-3.4534391e-8,-1046.9554)"><path id="path6033" d="m 1.6677144,1049.7325 c 5.1049374,-0.2298 16.4304496,-0.1081 33.9763996,0.365 17.54595,0.4731 31.345838,0.661 41.399638,0.5635 10.053825,-0.097 15.895737,-0.1068 17.525725,-0.028 1.629986,0.079 9.715583,0.1012 24.256823,0.068 14.5412,-0.034 24.65852,-0.1442 30.35192,-0.3319 5.69349,-0.1878 10.54195,-0.286 14.54538,-0.2949 4.00355,-0.01 9.81015,-0.1846 17.4199,-0.5274 7.60977,-0.3428 12.92342,-0.4862 15.94107,-0.4299 3.01768,0.056 7.35064,0.2821 12.9988,0.6778 5.64828,0.3959 15.35577,0.4631 29.12259,0.2017 13.76686,-0.2614 23.86426,-0.2958 30.29228,-0.1033 6.42805,0.1925 17.02211,0.3082 31.7823,0.347 14.76018,0.039 28.36995,-4e-4 40.82932,-0.1174 12.45943,-0.117 22.04856,-0.3147 28.76761,-0.5927 6.71908,-0.2781 14.7894,-0.3299 24.21095,-0.1558 9.42173,0.1741 26.80245,0.1938 52.14224,0.059 25.33989,-0.1347 43.50105,-0.1743 54.4835,-0.1186 10.98258,0.056 23.80371,-0.052 38.46334,-0.3235 14.65971,-0.2713 25.89123,-0.4016 33.69451,-0.3908 7.80333,0.011 17.77897,0.2387 29.92697,0.6836 12.14804,0.4448 19.34437,0.6107 21.58889,0.4974 2.24461,-0.1133 7.24313,-0.2041 14.99548,-0.2723" style="fill:none;stroke:#3c3c3c;stroke-width:3;stroke-linecap:round;stroke-linejoin:round;stroke-miterlimit:10;stroke-dasharray:none;stroke-opacity:1"/></g></svg>