<svg xmlns="http://www.w3.org/2000/svg" xmlns:svg="http://www.w3.org/2000/svg" id="svg4966" width="39.891" height="39.897" version="1.1" viewBox="0 0 39.891 39.897"><metadata id="metadata4971"/><g id="layer1" transform="translate(-1.5039738,-1011.0869)"><path style="fill:none;stroke:#3c3c3c;stroke-width:3;stroke-linecap:round;stroke-linejoin:round;stroke-miterlimit:10;stroke-dasharray:none;stroke-opacity:1" id="path250" d="m 13.70854,1012.8458 c -2.069748,0.6378 -6.385794,2.8071 -7.4186389,4.8425 -2.4095584,3.9831 -2.3657619,7.4436 -2.7518325,12.8 -0.046617,4.6822 -0.029008,8.2158 2.6989207,12.125 3.0947536,4.5471 8.7380007,6.6008 14.0615957,6.7532 4.213194,0.3966 8.650814,-0.1597 12.253282,-2.5248 2.192436,-1.3482 4.272589,-3.1669 4.963592,-5.747 1.259334,-3.6923 1.504004,-5.6763 1.838069,-9.5596 0.285268,-3.26 -1.167336,-9.5374 -3.078162,-12.087 -2.251353,-2.5963 -3.587702,-3.6766 -6.504376,-5.2873 -3.096516,-1.5686 -6.897566,-1.1317 -10.361451,-1.3619 -2.906722,-0.2991 -7.455948,-0.2482 -9.8441481,1.8858"/></g></svg>